<svg xmlns="http://www.w3.org/2000/svg" width="1297" height="554" viewBox="0 0 1297 554">
<style>text{font-family:Arial,Helvetica,sans-serif;font-size:12px;fill:#1f2933}.title{font-size:18px;font-weight:700}.head{font-size:11px;font-weight:700;fill:#334155}.small{font-size:10px;fill:#475569}</style>
<rect x="0" y="0" width="1297" height="554" fill="#ffffff"/>
<text class="title" x="12" y="29">terminalv4_modecostv2: majority path/task mode cost matrix</text>
<rect x="1" y="46" width="170" height="34" fill="#eef2f7" stroke="#cbd5e1"/>
<text class="head" x="9" y="68">method</text>
<rect x="171" y="46" width="245" height="34" fill="#eef2f7" stroke="#cbd5e1"/>
<text class="head" x="179" y="68">pair</text>
<rect x="416" y="46" width="88" height="34" fill="#eef2f7" stroke="#cbd5e1"/>
<text class="head" x="424" y="68">n</text>
<rect x="504" y="46" width="88" height="34" fill="#eef2f7" stroke="#cbd5e1"/>
<text class="head" x="512" y="68">terminal</text>
<rect x="592" y="46" width="88" height="34" fill="#eef2f7" stroke="#cbd5e1"/>
<text class="head" x="600" y="68">legacy</text>
<rect x="680" y="46" width="88" height="34" fill="#eef2f7" stroke="#cbd5e1"/>
<text class="head" x="688" y="68">reasoning</text>
<rect x="768" y="46" width="88" height="34" fill="#eef2f7" stroke="#cbd5e1"/>
<text class="head" x="776" y="68">modecost</text>
<rect x="856" y="46" width="88" height="34" fill="#eef2f7" stroke="#cbd5e1"/>
<text class="head" x="864" y="68">total</text>
<rect x="944" y="46" width="88" height="34" fill="#eef2f7" stroke="#cbd5e1"/>
<text class="head" x="952" y="68">term_share</text>
<rect x="1032" y="46" width="88" height="34" fill="#eef2f7" stroke="#cbd5e1"/>
<text class="head" x="1040" y="68">clear</text>
<rect x="1120" y="46" width="88" height="34" fill="#eef2f7" stroke="#cbd5e1"/>
<text class="head" x="1128" y="68">aux</text>
<rect x="1208" y="46" width="88" height="34" fill="#eef2f7" stroke="#cbd5e1"/>
<text class="head" x="1216" y="68">strict</text>
<rect x="1" y="80" width="170" height="38" fill="#ffffff" stroke="#e2e8f0"/>
<text x="9" y="103">direct_multistage_exp3</text>
<rect x="171" y="80" width="245" height="38" fill="#ffffff" stroke="#e2e8f0"/>
<text x="179" y="103">mostly_deep_vs_mostly_deep_requ...</text>
<rect x="416" y="80" width="88" height="38" fill="#ffffff" stroke="#e2e8f0"/>
<text x="424" y="103">62.00</text>
<rect x="504" y="80" width="88" height="38" fill="#ffffff" stroke="#e2e8f0"/>
<text x="512" y="103">7.48</text>
<rect x="592" y="80" width="88" height="38" fill="#ffffff" stroke="#e2e8f0"/>
<text x="600" y="103">5.29</text>
<rect x="680" y="80" width="88" height="38" fill="#ffffff" stroke="#e2e8f0"/>
<text x="688" y="103">5.62</text>
<rect x="768" y="80" width="88" height="38" fill="#ffffff" stroke="#e2e8f0"/>
<text x="776" y="103">0.84</text>
<rect x="856" y="80" width="88" height="38" fill="#fee9d9" stroke="#e2e8f0"/>
<text x="864" y="103">13.17</text>
<rect x="944" y="80" width="88" height="38" fill="#fbeed7" stroke="#e2e8f0"/>
<text x="952" y="103">57%</text>
<rect x="1032" y="80" width="88" height="38" fill="#f8efda" stroke="#e2e8f0"/>
<text x="1040" y="103">65%</text>
<rect x="1120" y="80" width="88" height="38" fill="#f8efda" stroke="#e2e8f0"/>
<text x="1128" y="103">65%</text>
<rect x="1208" y="80" width="88" height="38" fill="#ffedd5" stroke="#e2e8f0"/>
<text x="1216" y="103">50%</text>
<rect x="1" y="118" width="170" height="38" fill="#f8fafc" stroke="#e2e8f0"/>
<text x="9" y="141">direct_multistage_exp3</text>
<rect x="171" y="118" width="245" height="38" fill="#f8fafc" stroke="#e2e8f0"/>
<text x="179" y="141">mostly_deep_vs_mostly_fast_requ...</text>
<rect x="416" y="118" width="88" height="38" fill="#f8fafc" stroke="#e2e8f0"/>
<text x="424" y="141">18.00</text>
<rect x="504" y="118" width="88" height="38" fill="#f8fafc" stroke="#e2e8f0"/>
<text x="512" y="141">0.00</text>
<rect x="592" y="118" width="88" height="38" fill="#f8fafc" stroke="#e2e8f0"/>
<text x="600" y="141">0.00</text>
<rect x="680" y="118" width="88" height="38" fill="#f8fafc" stroke="#e2e8f0"/>
<text x="688" y="141">7.28</text>
<rect x="768" y="118" width="88" height="38" fill="#f8fafc" stroke="#e2e8f0"/>
<text x="776" y="141">1.86</text>
<rect x="856" y="118" width="88" height="38" fill="#f1f1e0" stroke="#e2e8f0"/>
<text x="864" y="141">7.35</text>
<rect x="944" y="118" width="88" height="38" fill="#fee2e2" stroke="#e2e8f0"/>
<text x="952" y="141">0%</text>
<rect x="1032" y="118" width="88" height="38" fill="#e7f5e9" stroke="#e2e8f0"/>
<text x="1040" y="141">100%</text>
<rect x="1120" y="118" width="88" height="38" fill="#e7f5e9" stroke="#e2e8f0"/>
<text x="1128" y="141">100%</text>
<rect x="1208" y="118" width="88" height="38" fill="#e7f5e9" stroke="#e2e8f0"/>
<text x="1216" y="141">100%</text>
<rect x="1" y="156" width="170" height="38" fill="#ffffff" stroke="#e2e8f0"/>
<text x="9" y="179">direct_multistage_exp3</text>
<rect x="171" y="156" width="245" height="38" fill="#ffffff" stroke="#e2e8f0"/>
<text x="179" y="179">mostly_fast_vs_mostly_deep_requ...</text>
<rect x="416" y="156" width="88" height="38" fill="#ffffff" stroke="#e2e8f0"/>
<text x="424" y="179">13.00</text>
<rect x="504" y="156" width="88" height="38" fill="#ffffff" stroke="#e2e8f0"/>
<text x="512" y="179">9.04</text>
<rect x="592" y="156" width="88" height="38" fill="#ffffff" stroke="#e2e8f0"/>
<text x="600" y="179">4.50</text>
<rect x="680" y="156" width="88" height="38" fill="#ffffff" stroke="#e2e8f0"/>
<text x="688" y="179">8.64</text>
<rect x="768" y="156" width="88" height="38" fill="#ffffff" stroke="#e2e8f0"/>
<text x="776" y="179">3.58</text>
<rect x="856" y="156" width="88" height="38" fill="#fee2e2" stroke="#e2e8f0"/>
<text x="864" y="179">17.74</text>
<rect x="944" y="156" width="88" height="38" fill="#feedd5" stroke="#e2e8f0"/>
<text x="952" y="179">51%</text>
<rect x="1032" y="156" width="88" height="38" fill="#feead8" stroke="#e2e8f0"/>
<text x="1040" y="179">38%</text>
<rect x="1120" y="156" width="88" height="38" fill="#fdedd6" stroke="#e2e8f0"/>
<text x="1128" y="179">54%</text>
<rect x="1208" y="156" width="88" height="38" fill="#feead8" stroke="#e2e8f0"/>
<text x="1216" y="179">38%</text>
<rect x="1" y="194" width="170" height="38" fill="#f8fafc" stroke="#e2e8f0"/>
<text x="9" y="217">direct_multistage_exp3</text>
<rect x="171" y="194" width="245" height="38" fill="#f8fafc" stroke="#e2e8f0"/>
<text x="179" y="217">mostly_fast_vs_mostly_fast_requ...</text>
<rect x="416" y="194" width="88" height="38" fill="#f8fafc" stroke="#e2e8f0"/>
<text x="424" y="217">7.00</text>
<rect x="504" y="194" width="88" height="38" fill="#f8fafc" stroke="#e2e8f0"/>
<text x="512" y="217">0.00</text>
<rect x="592" y="194" width="88" height="38" fill="#f8fafc" stroke="#e2e8f0"/>
<text x="600" y="217">0.00</text>
<rect x="680" y="194" width="88" height="38" fill="#f8fafc" stroke="#e2e8f0"/>
<text x="688" y="217">4.38</text>
<rect x="768" y="194" width="88" height="38" fill="#f8fafc" stroke="#e2e8f0"/>
<text x="776" y="217">0.86</text>
<rect x="856" y="194" width="88" height="38" fill="#e7f5e9" stroke="#e2e8f0"/>
<text x="864" y="217">4.45</text>
<rect x="944" y="194" width="88" height="38" fill="#fee2e2" stroke="#e2e8f0"/>
<text x="952" y="217">0%</text>
<rect x="1032" y="194" width="88" height="38" fill="#e7f5e9" stroke="#e2e8f0"/>
<text x="1040" y="217">100%</text>
<rect x="1120" y="194" width="88" height="38" fill="#e7f5e9" stroke="#e2e8f0"/>
<text x="1128" y="217">100%</text>
<rect x="1208" y="194" width="88" height="38" fill="#e7f5e9" stroke="#e2e8f0"/>
<text x="1216" y="217">100%</text>
<rect x="1" y="232" width="170" height="38" fill="#ffffff" stroke="#e2e8f0"/>
<text x="9" y="255">epsilon_exp3</text>
<rect x="171" y="232" width="245" height="38" fill="#ffffff" stroke="#e2e8f0"/>
<text x="179" y="255">mostly_deep_vs_mostly_deep_requ...</text>
<rect x="416" y="232" width="88" height="38" fill="#ffffff" stroke="#e2e8f0"/>
<text x="424" y="255">61.00</text>
<rect x="504" y="232" width="88" height="38" fill="#ffffff" stroke="#e2e8f0"/>
<text x="512" y="255">7.75</text>
<rect x="592" y="232" width="88" height="38" fill="#ffffff" stroke="#e2e8f0"/>
<text x="600" y="255">5.48</text>
<rect x="680" y="232" width="88" height="38" fill="#ffffff" stroke="#e2e8f0"/>
<text x="688" y="255">6.02</text>
<rect x="768" y="232" width="88" height="38" fill="#ffffff" stroke="#e2e8f0"/>
<text x="776" y="255">1.07</text>
<rect x="856" y="232" width="88" height="38" fill="#fee8da" stroke="#e2e8f0"/>
<text x="864" y="255">13.84</text>
<rect x="944" y="232" width="88" height="38" fill="#fbeed7" stroke="#e2e8f0"/>
<text x="952" y="255">56%</text>
<rect x="1032" y="232" width="88" height="38" fill="#fcedd7" stroke="#e2e8f0"/>
<text x="1040" y="255">56%</text>
<rect x="1120" y="232" width="88" height="38" fill="#f4f0dd" stroke="#e2e8f0"/>
<text x="1128" y="255">72%</text>
<rect x="1208" y="232" width="88" height="38" fill="#fdedd6" stroke="#e2e8f0"/>
<text x="1216" y="255">54%</text>
<rect x="1" y="270" width="170" height="38" fill="#f8fafc" stroke="#e2e8f0"/>
<text x="9" y="293">epsilon_exp3</text>
<rect x="171" y="270" width="245" height="38" fill="#f8fafc" stroke="#e2e8f0"/>
<text x="179" y="293">mostly_deep_vs_mostly_fast_requ...</text>
<rect x="416" y="270" width="88" height="38" fill="#f8fafc" stroke="#e2e8f0"/>
<text x="424" y="293">19.00</text>
<rect x="504" y="270" width="88" height="38" fill="#f8fafc" stroke="#e2e8f0"/>
<text x="512" y="293">0.00</text>
<rect x="592" y="270" width="88" height="38" fill="#f8fafc" stroke="#e2e8f0"/>
<text x="600" y="293">0.00</text>
<rect x="680" y="270" width="88" height="38" fill="#f8fafc" stroke="#e2e8f0"/>
<text x="688" y="293">7.64</text>
<rect x="768" y="270" width="88" height="38" fill="#f8fafc" stroke="#e2e8f0"/>
<text x="776" y="293">1.87</text>
<rect x="856" y="270" width="88" height="38" fill="#f2f1df" stroke="#e2e8f0"/>
<text x="864" y="293">7.71</text>
<rect x="944" y="270" width="88" height="38" fill="#fee2e2" stroke="#e2e8f0"/>
<text x="952" y="293">0%</text>
<rect x="1032" y="270" width="88" height="38" fill="#e7f5e9" stroke="#e2e8f0"/>
<text x="1040" y="293">100%</text>
<rect x="1120" y="270" width="88" height="38" fill="#e7f5e9" stroke="#e2e8f0"/>
<text x="1128" y="293">100%</text>
<rect x="1208" y="270" width="88" height="38" fill="#e7f5e9" stroke="#e2e8f0"/>
<text x="1216" y="293">100%</text>
<rect x="1" y="308" width="170" height="38" fill="#ffffff" stroke="#e2e8f0"/>
<text x="9" y="331">epsilon_exp3</text>
<rect x="171" y="308" width="245" height="38" fill="#ffffff" stroke="#e2e8f0"/>
<text x="179" y="331">mostly_fast_vs_mostly_deep_requ...</text>
<rect x="416" y="308" width="88" height="38" fill="#ffffff" stroke="#e2e8f0"/>
<text x="424" y="331">14.00</text>
<rect x="504" y="308" width="88" height="38" fill="#ffffff" stroke="#e2e8f0"/>
<text x="512" y="331">7.11</text>
<rect x="592" y="308" width="88" height="38" fill="#ffffff" stroke="#e2e8f0"/>
<text x="600" y="331">3.11</text>
<rect x="680" y="308" width="88" height="38" fill="#ffffff" stroke="#e2e8f0"/>
<text x="688" y="331">8.41</text>
<rect x="768" y="308" width="88" height="38" fill="#ffffff" stroke="#e2e8f0"/>
<text x="776" y="331">3.32</text>
<rect x="856" y="308" width="88" height="38" fill="#fee5dd" stroke="#e2e8f0"/>
<text x="864" y="331">15.58</text>
<rect x="944" y="308" width="88" height="38" fill="#feecd6" stroke="#e2e8f0"/>
<text x="952" y="331">46%</text>
<rect x="1032" y="308" width="88" height="38" fill="#fbeed7" stroke="#e2e8f0"/>
<text x="1040" y="331">57%</text>
<rect x="1120" y="308" width="88" height="38" fill="#fbeed7" stroke="#e2e8f0"/>
<text x="1128" y="331">57%</text>
<rect x="1208" y="308" width="88" height="38" fill="#ffedd5" stroke="#e2e8f0"/>
<text x="1216" y="331">50%</text>
<rect x="1" y="346" width="170" height="38" fill="#f8fafc" stroke="#e2e8f0"/>
<text x="9" y="369">epsilon_exp3</text>
<rect x="171" y="346" width="245" height="38" fill="#f8fafc" stroke="#e2e8f0"/>
<text x="179" y="369">mostly_fast_vs_mostly_fast_requ...</text>
<rect x="416" y="346" width="88" height="38" fill="#f8fafc" stroke="#e2e8f0"/>
<text x="424" y="369">6.00</text>
<rect x="504" y="346" width="88" height="38" fill="#f8fafc" stroke="#e2e8f0"/>
<text x="512" y="369">0.00</text>
<rect x="592" y="346" width="88" height="38" fill="#f8fafc" stroke="#e2e8f0"/>
<text x="600" y="369">0.00</text>
<rect x="680" y="346" width="88" height="38" fill="#f8fafc" stroke="#e2e8f0"/>
<text x="688" y="369">4.91</text>
<rect x="768" y="346" width="88" height="38" fill="#f8fafc" stroke="#e2e8f0"/>
<text x="776" y="369">1.00</text>
<rect x="856" y="346" width="88" height="38" fill="#e8f4e7" stroke="#e2e8f0"/>
<text x="864" y="369">4.98</text>
<rect x="944" y="346" width="88" height="38" fill="#fee2e2" stroke="#e2e8f0"/>
<text x="952" y="369">0%</text>
<rect x="1032" y="346" width="88" height="38" fill="#e7f5e9" stroke="#e2e8f0"/>
<text x="1040" y="369">100%</text>
<rect x="1120" y="346" width="88" height="38" fill="#e7f5e9" stroke="#e2e8f0"/>
<text x="1128" y="369">100%</text>
<rect x="1208" y="346" width="88" height="38" fill="#e7f5e9" stroke="#e2e8f0"/>
<text x="1216" y="369">100%</text>
<rect x="1" y="384" width="170" height="38" fill="#ffffff" stroke="#e2e8f0"/>
<text x="9" y="407">risky_ps_linear</text>
<rect x="171" y="384" width="245" height="38" fill="#ffffff" stroke="#e2e8f0"/>
<text x="179" y="407">mostly_deep_vs_mostly_deep_requ...</text>
<rect x="416" y="384" width="88" height="38" fill="#ffffff" stroke="#e2e8f0"/>
<text x="424" y="407">61.00</text>
<rect x="504" y="384" width="88" height="38" fill="#ffffff" stroke="#e2e8f0"/>
<text x="512" y="407">8.46</text>
<rect x="592" y="384" width="88" height="38" fill="#ffffff" stroke="#e2e8f0"/>
<text x="600" y="407">6.07</text>
<rect x="680" y="384" width="88" height="38" fill="#ffffff" stroke="#e2e8f0"/>
<text x="688" y="407">5.96</text>
<rect x="768" y="384" width="88" height="38" fill="#ffffff" stroke="#e2e8f0"/>
<text x="776" y="407">1.09</text>
<rect x="856" y="384" width="88" height="38" fill="#fee7db" stroke="#e2e8f0"/>
<text x="864" y="407">14.50</text>
<rect x="944" y="384" width="88" height="38" fill="#faeed8" stroke="#e2e8f0"/>
<text x="952" y="407">59%</text>
<rect x="1032" y="384" width="88" height="38" fill="#fbeed7" stroke="#e2e8f0"/>
<text x="1040" y="407">57%</text>
<rect x="1120" y="384" width="88" height="38" fill="#f7efdb" stroke="#e2e8f0"/>
<text x="1128" y="407">66%</text>
<rect x="1208" y="384" width="88" height="38" fill="#feecd5" stroke="#e2e8f0"/>
<text x="1216" y="407">48%</text>
<rect x="1" y="422" width="170" height="38" fill="#f8fafc" stroke="#e2e8f0"/>
<text x="9" y="445">risky_ps_linear</text>
<rect x="171" y="422" width="245" height="38" fill="#f8fafc" stroke="#e2e8f0"/>
<text x="179" y="445">mostly_deep_vs_mostly_fast_requ...</text>
<rect x="416" y="422" width="88" height="38" fill="#f8fafc" stroke="#e2e8f0"/>
<text x="424" y="445">22.00</text>
<rect x="504" y="422" width="88" height="38" fill="#f8fafc" stroke="#e2e8f0"/>
<text x="512" y="445">0.00</text>
<rect x="592" y="422" width="88" height="38" fill="#f8fafc" stroke="#e2e8f0"/>
<text x="600" y="445">0.00</text>
<rect x="680" y="422" width="88" height="38" fill="#f8fafc" stroke="#e2e8f0"/>
<text x="688" y="445">7.70</text>
<rect x="768" y="422" width="88" height="38" fill="#f8fafc" stroke="#e2e8f0"/>
<text x="776" y="445">1.84</text>
<rect x="856" y="422" width="88" height="38" fill="#f2f1df" stroke="#e2e8f0"/>
<text x="864" y="445">7.77</text>
<rect x="944" y="422" width="88" height="38" fill="#fee2e2" stroke="#e2e8f0"/>
<text x="952" y="445">0%</text>
<rect x="1032" y="422" width="88" height="38" fill="#e7f5e9" stroke="#e2e8f0"/>
<text x="1040" y="445">100%</text>
<rect x="1120" y="422" width="88" height="38" fill="#e7f5e9" stroke="#e2e8f0"/>
<text x="1128" y="445">100%</text>
<rect x="1208" y="422" width="88" height="38" fill="#e7f5e9" stroke="#e2e8f0"/>
<text x="1216" y="445">100%</text>
<rect x="1" y="460" width="170" height="38" fill="#ffffff" stroke="#e2e8f0"/>
<text x="9" y="483">risky_ps_linear</text>
<rect x="171" y="460" width="245" height="38" fill="#ffffff" stroke="#e2e8f0"/>
<text x="179" y="483">mostly_fast_vs_mostly_deep_requ...</text>
<rect x="416" y="460" width="88" height="38" fill="#ffffff" stroke="#e2e8f0"/>
<text x="424" y="483">14.00</text>
<rect x="504" y="460" width="88" height="38" fill="#ffffff" stroke="#e2e8f0"/>
<text x="512" y="483">7.43</text>
<rect x="592" y="460" width="88" height="38" fill="#ffffff" stroke="#e2e8f0"/>
<text x="600" y="483">4.39</text>
<rect x="680" y="460" width="88" height="38" fill="#ffffff" stroke="#e2e8f0"/>
<text x="688" y="483">8.16</text>
<rect x="768" y="460" width="88" height="38" fill="#ffffff" stroke="#e2e8f0"/>
<text x="776" y="483">3.14</text>
<rect x="856" y="460" width="88" height="38" fill="#fee5dd" stroke="#e2e8f0"/>
<text x="864" y="483">15.66</text>
<rect x="944" y="460" width="88" height="38" fill="#feecd5" stroke="#e2e8f0"/>
<text x="952" y="483">48%</text>
<rect x="1032" y="460" width="88" height="38" fill="#fbeed7" stroke="#e2e8f0"/>
<text x="1040" y="483">57%</text>
<rect x="1120" y="460" width="88" height="38" fill="#edf2e3" stroke="#e2e8f0"/>
<text x="1128" y="483">86%</text>
<rect x="1208" y="460" width="88" height="38" fill="#fbeed7" stroke="#e2e8f0"/>
<text x="1216" y="483">57%</text>
<rect x="1" y="498" width="170" height="38" fill="#f8fafc" stroke="#e2e8f0"/>
<text x="9" y="521">risky_ps_linear</text>
<rect x="171" y="498" width="245" height="38" fill="#f8fafc" stroke="#e2e8f0"/>
<text x="179" y="521">mostly_fast_vs_mostly_fast_requ...</text>
<rect x="416" y="498" width="88" height="38" fill="#f8fafc" stroke="#e2e8f0"/>
<text x="424" y="521">3.00</text>
<rect x="504" y="498" width="88" height="38" fill="#f8fafc" stroke="#e2e8f0"/>
<text x="512" y="521">0.00</text>
<rect x="592" y="498" width="88" height="38" fill="#f8fafc" stroke="#e2e8f0"/>
<text x="600" y="521">0.00</text>
<rect x="680" y="498" width="88" height="38" fill="#f8fafc" stroke="#e2e8f0"/>
<text x="688" y="521">4.94</text>
<rect x="768" y="498" width="88" height="38" fill="#f8fafc" stroke="#e2e8f0"/>
<text x="776" y="521">1.00</text>
<rect x="856" y="498" width="88" height="38" fill="#e8f4e7" stroke="#e2e8f0"/>
<text x="864" y="521">5.00</text>
<rect x="944" y="498" width="88" height="38" fill="#fee2e2" stroke="#e2e8f0"/>
<text x="952" y="521">0%</text>
<rect x="1032" y="498" width="88" height="38" fill="#e7f5e9" stroke="#e2e8f0"/>
<text x="1040" y="521">100%</text>
<rect x="1120" y="498" width="88" height="38" fill="#e7f5e9" stroke="#e2e8f0"/>
<text x="1128" y="521">100%</text>
<rect x="1208" y="498" width="88" height="38" fill="#e7f5e9" stroke="#e2e8f0"/>
<text x="1216" y="521">100%</text>
</svg>